<svg width="161" height="238" viewBox="0 0 161 238" fill="none" xmlns="http://www.w3.org/2000/svg">
<path d="M139.353 -33.4129C136.765 0.599628 138.759 35.3028 138.739 69.4017C138.72 103.604 137.493 138.031 138.989 172.216C139.046 173.39 140.944 173.39 141.002 172.216C142.497 138.031 141.27 103.621 141.251 69.4017C141.232 35.32 143.206 0.599628 140.637 -33.4129C140.561 -34.1553 139.41 -34.1553 139.353 -33.4129Z" fill="#33000F"/>
<path d="M127.524 165.69C135.365 165.914 143.206 166.052 151.048 166.26C150.952 165.673 150.875 165.103 150.779 164.516C145.2 165.258 139.64 166.122 134.1 166.95C130.917 167.434 126.623 167.209 124.322 169.436C123.824 169.92 123.92 170.662 124.552 171.025C127.428 172.631 131.435 171.767 134.675 171.646C140.062 171.456 145.449 171.284 150.837 171.094C150.837 170.472 150.837 169.851 150.837 169.229C143.206 170.127 135.691 171.439 128.195 173.097C126.872 173.39 127.217 175.117 128.502 175.168C136.42 175.548 144.338 175.497 152.255 175.393C152.16 174.72 152.045 174.029 151.949 173.356C144.242 174.581 136.535 175.807 128.828 177.033C127.486 177.24 127.812 179.174 129.154 179.14C137.973 178.967 146.792 179.088 155.61 179.485C157.163 179.554 157.163 177.378 155.61 177.309C146.792 176.912 137.973 176.809 129.154 176.999C129.269 177.706 129.364 178.397 129.479 179.105C137.187 177.845 144.874 176.602 152.581 175.341C153.866 175.134 153.559 173.287 152.275 173.304C144.338 173.39 136.439 173.425 128.521 173.028C128.617 173.718 128.732 174.409 128.828 175.099C136.19 173.442 143.628 172.113 151.105 171.025C152.255 170.852 151.987 169.16 150.837 169.195C146.6 169.333 142.382 169.454 138.145 169.575C134.848 169.678 128.502 170.921 125.703 169.247C125.779 169.782 125.856 170.3 125.933 170.835C128.31 168.694 135.135 168.815 138.298 168.314C142.65 167.641 147.002 166.95 151.354 166.191C152.466 166.001 152.179 164.447 151.086 164.447C143.245 164.499 135.404 164.481 127.562 164.55C126.719 164.602 126.738 165.673 127.524 165.69Z" fill="#33000F"/>
<path d="M131.129 182.333C125.972 197.475 115.293 210.786 122.655 227.102C127.007 236.771 136.248 239.55 146.965 236.702C147.789 236.477 147.444 235.441 146.619 235.562C133.18 237.496 125.224 231.798 122.789 220.127C119.817 205.745 130.688 195.8 132.049 182.454C132.106 181.936 131.282 181.884 131.129 182.333Z" fill="#33000F"/>
<path d="M148.632 182.437C149.993 195.835 160.902 205.624 157.892 220.11C155.477 231.781 147.616 237.496 134.062 235.545C133.237 235.424 132.873 236.477 133.717 236.684C144.453 239.533 153.636 236.736 158.026 227.085C165.427 210.787 154.71 197.44 149.552 182.316C149.418 181.884 148.575 181.936 148.632 182.437Z" fill="#33000F"/>
<path d="M150.434 213.031C146.197 216.294 144.759 201.843 144.74 201.532C144.452 199.167 144.241 196.784 144.107 194.402C143.801 189.067 143.877 183.749 144.529 178.432C144.663 177.309 142.708 177.309 142.554 178.432C141.327 188.376 141.96 198.632 143.781 208.49C144.529 212.513 146.657 218.228 151.795 214.274C152.754 213.532 151.373 212.306 150.434 213.031Z" fill="#33000F"/>
<path d="M129.326 219.989C125.3 213.912 131.32 207.834 137.57 205.952C139.774 205.296 142.267 204.83 144.606 204.83C149.859 204.847 151.623 209.509 150.166 213.411C149.763 214.499 151.661 214.965 152.064 213.877C153.118 211.011 152.85 206.816 150.242 204.64C147.117 201.999 141.423 203.104 137.781 204.07C129.997 206.142 122.942 213.48 127.792 220.8C128.387 221.664 129.92 220.87 129.326 219.989Z" fill="#33000F"/>
<path d="M136.937 178.432C137.685 184.371 138.088 190.396 138.356 196.37C138.528 200.151 137.992 224.961 129.019 219.696C128.061 219.126 127.16 220.524 128.118 221.077C135.288 225.255 138.663 214.844 139.602 209.958C141.558 199.771 139.66 188.411 137.762 178.328C137.685 177.914 136.88 178 136.937 178.432Z" fill="#33000F"/>
<path d="M64.2196 94.4018C72.7127 94.6263 81.2249 94.7817 89.7179 94.9888C89.6221 94.4018 89.5454 93.8321 89.4495 93.2451C83.4105 94.0565 77.3906 94.9888 71.3515 95.8866C67.9198 96.4046 63.2802 96.1629 60.7879 98.5628C60.2894 99.0462 60.3853 99.7886 61.018 100.151C64.1238 101.878 68.4566 100.945 71.9458 100.824C77.7932 100.635 83.6213 100.427 89.4687 100.237C89.4687 99.6159 89.4687 98.9944 89.4687 98.3728C81.2057 99.357 73.0578 100.773 64.9481 102.568C63.6253 102.862 63.9704 104.588 65.2549 104.64C73.8438 105.054 82.4327 105.003 91.0216 104.899C90.9258 104.226 90.8107 103.535 90.7149 102.862C82.356 104.191 73.9972 105.521 65.6575 106.867C64.3155 107.075 64.6414 109.008 65.9834 108.974C75.5501 108.784 85.1167 108.905 94.6834 109.336C96.2363 109.405 96.2363 107.23 94.6834 107.161C85.1167 106.729 75.5693 106.608 65.9834 106.833C66.0984 107.541 66.1943 108.231 66.3093 108.939C74.649 107.575 83.0079 106.229 91.3475 104.865C92.632 104.657 92.3253 102.81 91.0408 102.827C82.4519 102.931 73.863 102.965 65.2741 102.534C65.3699 103.224 65.485 103.915 65.5808 104.606C73.5754 102.81 81.6275 101.377 89.7563 100.186C90.9066 100.013 90.6382 98.321 89.4879 98.3556C84.9059 98.4937 80.3047 98.6318 75.7226 98.7699C72.1375 98.8735 65.2549 100.237 62.1874 98.4074C62.2641 98.9426 62.3408 99.4605 62.4175 99.9958C65.0057 97.6477 72.4059 97.7858 75.876 97.2506C80.5922 96.5082 85.3276 95.783 90.0247 94.9716C91.1366 94.7817 90.8491 93.2278 89.7563 93.2278C81.2632 93.2623 72.751 93.2451 64.258 93.3141C63.4144 93.2968 63.4144 94.3673 64.2196 94.4018Z" fill="#33000F"/>
<path d="M68.15 112.496C63.0311 128.829 51.3748 142.486 58.66 160.148C63.1462 171.025 73.2305 174.582 85.2894 171.388C86.1138 171.163 85.7687 170.11 84.9444 170.248C70.0863 172.51 61.5549 166.104 58.9668 153.276C57.203 144.557 59.4844 136.305 63.2037 128.294C65.6385 123.028 68.5909 118.366 69.1086 112.599C69.1469 112.116 68.3034 112.03 68.15 112.496Z" fill="#33000F"/>
<path d="M87.1488 112.6C87.5898 117.399 89.6603 121.232 91.7883 125.566C96.1403 134.423 99.2845 143.487 97.2906 153.259C94.7024 166.018 86.1519 172.493 71.313 170.231C70.4886 170.11 70.1244 171.163 70.9679 171.37C83.0077 174.547 93.1304 170.991 97.5974 160.131C104.863 142.451 93.2262 128.846 88.1074 112.479C87.954 112.03 87.0913 112.099 87.1488 112.6Z" fill="#33000F"/>
<path d="M89.1237 145.818C84.3692 149.478 82.8354 133.646 82.7971 133.301C82.4903 130.728 82.2603 128.155 82.1069 125.566C81.781 119.782 81.8577 114.015 82.567 108.249C82.7012 107.126 80.7457 107.126 80.5923 108.249C79.2503 119.022 79.9405 130.124 81.9152 140.828C82.7012 145.11 84.9635 151.308 90.4658 147.061C91.4435 146.319 90.0631 145.093 89.1237 145.818Z" fill="#33000F"/>
<path d="M66.1176 153.345C61.7272 146.716 68.2648 140.068 75.1091 138.014C77.5247 137.289 80.2087 136.788 82.7586 136.805C88.5101 136.823 90.4464 141.933 88.8743 146.198C88.4717 147.285 90.3697 147.752 90.7723 146.664C91.9034 143.573 91.6159 139.084 88.836 136.719C85.4618 133.87 79.3077 135.062 75.3775 136.097C66.9803 138.325 59.35 146.232 64.603 154.122C65.159 155.037 66.6927 154.226 66.1176 153.345Z" fill="#33000F"/>
<path d="M74.4576 108.249C75.3204 114.879 75.7613 121.612 76.0489 128.294C76.2023 132.04 75.4546 158.732 65.7921 153.052C64.8335 152.482 63.9324 153.881 64.891 154.433C72.9814 159.147 76.6049 146.56 77.4101 141.346C79.0972 130.521 77.2759 118.867 75.2628 108.145C75.2053 107.731 74.4001 107.834 74.4576 108.249Z" fill="#33000F"/>
<path d="M78.3494 94.6262C79.979 73.3209 78.6754 51.5666 78.6754 30.2095C78.6754 8.8006 79.6915 -12.85 78.3878 -34.2071C78.3111 -35.3294 76.509 -35.3294 76.4514 -34.2071C75.1478 -12.8328 76.1639 8.81787 76.1639 30.2095C76.1639 51.5666 74.8602 73.3209 76.4898 94.6262C76.5856 95.6966 78.2727 95.6966 78.3494 94.6262Z" fill="#33000F"/>
<path d="M6.34002 60.7346C12.8584 60.9417 19.3959 61.0799 25.9143 61.2698C25.8184 60.6828 25.7417 60.113 25.6459 59.526C21.0063 60.113 16.3668 60.8381 11.7464 61.5288C9.06239 61.9259 5.45812 61.7532 3.52178 63.6524C3.02332 64.1358 3.11918 64.8782 3.75184 65.2408C6.18664 66.5875 9.52251 65.8796 12.2641 65.776C16.7502 65.6206 21.2364 65.4652 25.7226 65.3098C25.7226 64.6883 25.7226 64.0667 25.7226 63.4452C19.3384 64.1703 13.0693 65.258 6.81931 66.6565C5.49646 66.95 5.84155 68.6766 7.12606 68.7284C13.7211 69.0564 20.3162 69.0046 26.9112 68.9183C26.8154 68.2449 26.7003 67.5543 26.6045 66.881C20.182 67.8996 13.7786 68.9183 7.35612 69.9369C6.0141 70.1441 6.34002 72.0778 7.68203 72.0433C15.0248 71.9052 22.3675 71.9915 29.7103 72.3368C31.2632 72.4059 31.2632 70.2304 29.7103 70.1614C22.3675 69.8333 15.0248 69.747 7.68203 69.9024C7.79706 70.6103 7.89292 71.3009 8.00795 72.0088C14.4113 70.9728 20.8338 69.9197 27.2371 68.8837C28.5216 68.6766 28.2149 66.8292 26.9304 66.8464C20.3353 66.9155 13.7403 66.95 7.14523 66.622C7.24109 67.3126 7.35612 68.0032 7.45197 68.6938C13.5869 67.3126 19.7602 66.2076 25.991 65.2753C27.1413 65.1027 26.8729 63.4107 25.7226 63.4452C22.195 63.5488 18.6674 63.6524 15.159 63.756C12.4558 63.8423 7.18357 64.8782 4.88297 63.497C4.95966 64.015 5.03634 64.5502 5.11303 65.0681C7.06854 63.3243 12.7242 63.4279 15.3315 63.0136C18.955 62.4438 22.5784 61.8741 26.1827 61.2352C27.2755 61.0453 27.0071 59.4915 25.9143 59.4915C19.3959 59.5605 12.8584 59.5432 6.34002 59.6296C5.55398 59.6468 5.55398 60.7173 6.34002 60.7346Z" fill="#33000F"/>
<path d="M9.27301 74.4776C4.71015 86.9259 -3.95544 98.2001 2.04529 111.667C5.70708 119.903 13.4524 122.32 22.559 119.851C23.4025 119.626 23.0191 118.608 22.2139 118.711C9.8865 120.282 3.31062 114.153 2.27535 103.552C1.20174 92.6925 9.40721 84.8023 10.2124 74.5985C10.2508 74.0805 9.42638 74.0287 9.27301 74.4776Z" fill="#33000F"/>
<path d="M23.8433 74.5986C24.6485 84.8542 32.969 92.6235 31.7804 103.552C30.6301 114.153 24.3417 120.3 11.8418 118.711C11.0174 118.608 10.6532 119.626 11.4967 119.851C20.6033 122.303 28.3486 119.885 32.0104 111.667C38.0111 98.1829 29.3647 86.926 24.8019 74.4777C24.6101 74.0461 23.8049 74.0806 23.8433 74.5986Z" fill="#33000F"/>
<path d="M25.3009 99.9611C22.0801 102.447 20.8531 90.7069 20.8339 90.4997C20.6038 88.5315 20.4313 86.546 20.3163 84.5605C20.067 80.1233 20.1245 75.6861 20.6805 71.2662C20.8147 70.144 18.8592 70.144 18.7058 71.2662C17.6706 79.5536 18.2074 88.0999 19.7411 96.3354C20.393 99.8057 22.3101 104.588 26.6813 101.204C27.6398 100.462 26.2595 99.2187 25.3009 99.9611Z" fill="#33000F"/>
<path d="M7.98855 105.78C4.67185 100.807 9.65648 95.8349 14.7561 94.2983C16.5775 93.7458 18.6288 93.366 20.5652 93.3832C24.8213 93.4005 26.2016 97.1816 25.0322 100.341C24.6296 101.429 26.5275 101.895 26.9302 100.807C27.8312 98.3729 27.582 94.7817 25.3389 92.9516C22.6549 90.7589 17.9386 91.6222 14.8328 92.4509C8.23778 94.2119 2.33291 100.41 6.43564 106.591C7.02996 107.472 8.5637 106.66 7.98855 105.78Z" fill="#33000F"/>
<path d="M14.1046 71.249C14.6989 76.2041 15.0056 81.211 15.2165 86.1834C15.3507 89.2567 14.9098 109.751 7.6629 105.486C6.70431 104.916 5.80325 106.315 6.76183 106.867C12.8392 110.407 15.7533 101.67 16.5394 97.5094C18.169 89.0149 16.5777 79.5536 14.929 71.1454C14.8523 70.731 14.0662 70.8174 14.1046 71.249Z" fill="#33000F"/>
<path d="M17.9392 60.1992C19.2428 44.5915 18.2651 28.6384 18.2651 12.9961C18.2651 -2.6808 19.1278 -18.5821 17.9775 -34.2071C17.9008 -35.3294 16.1179 -35.3294 16.0412 -34.2071C14.8909 -18.5821 15.7536 -2.66353 15.7536 12.9961C15.7536 28.6556 14.7758 44.6087 16.0795 60.1992C16.1946 61.2524 17.8625 61.2697 17.9392 60.1992Z" fill="#33000F"/>
</svg>
