<svg width="173" height="173" viewBox="0 0 173 173" fill="none" xmlns="http://www.w3.org/2000/svg">
<path d="M106.581 125.363C106.451 126.978 106.96 128.58 107.999 129.824C109.038 131.068 110.524 131.854 112.136 132.014C113.687 131.724 115.087 130.901 116.095 129.688C117.102 128.475 117.654 126.947 117.654 125.37C117.654 123.793 117.102 122.265 116.095 121.052C115.087 119.839 113.687 119.016 112.136 118.727C110.526 118.886 109.043 119.67 108.004 120.911C106.966 122.152 106.455 123.75 106.581 125.363ZM114.104 125.363C114.104 127.158 113.067 128.422 112.136 128.422C111.206 128.422 110.172 127.166 110.172 125.363C110.172 123.56 111.21 122.303 112.136 122.303C113.063 122.303 114.104 123.56 114.104 125.363ZM106.793 138.057C107.518 136.797 107.825 135.339 107.669 133.894C107.513 132.448 106.902 131.089 105.924 130.013C105.444 129.47 104.84 129.049 104.164 128.787C103.488 128.524 102.759 128.428 102.038 128.506C101.317 128.583 100.625 128.833 100.02 129.233C99.4152 129.634 98.9153 130.173 98.5621 130.807C97.8201 132.062 97.5109 133.525 97.6823 134.973C97.7409 136.35 98.2987 137.658 99.2516 138.654C100.205 139.65 101.487 140.265 102.861 140.384C103.012 140.384 103.162 140.384 103.317 140.363C104.034 140.271 104.721 140.016 105.324 139.616C105.927 139.216 106.429 138.683 106.793 138.057ZM101.252 134.588C101.164 133.933 101.29 133.267 101.611 132.689C101.692 132.534 101.805 132.399 101.943 132.293C102.082 132.187 102.242 132.112 102.412 132.075H102.491C102.815 132.107 103.114 132.263 103.328 132.509C103.767 133.002 104.034 133.625 104.089 134.283C104.176 134.938 104.05 135.605 103.73 136.183C103.649 136.337 103.535 136.471 103.397 136.577C103.259 136.682 103.099 136.756 102.929 136.793C102.29 136.851 101.399 135.935 101.252 134.588ZM120.209 125.363C120.4 126.419 120.889 127.399 121.617 128.188C122.346 128.976 123.284 129.541 124.322 129.815C125.359 130.089 126.454 130.062 127.477 129.736C128.5 129.411 129.408 128.8 130.097 127.976C130.785 127.153 131.224 126.15 131.362 125.085C131.501 124.02 131.333 122.939 130.878 121.966C130.423 120.994 129.701 120.171 128.795 119.595C127.889 119.018 126.838 118.712 125.765 118.712C124.152 118.872 122.666 119.658 121.627 120.902C120.588 122.145 120.079 123.747 120.209 125.363ZM127.729 125.363C127.729 127.158 126.695 128.422 125.765 128.422C124.835 128.422 123.8 127.166 123.8 125.363C123.8 123.56 124.835 122.303 125.765 122.303C126.695 122.303 127.729 123.56 127.729 125.363ZM138.937 130.24C138.565 129.761 138.102 129.361 137.574 129.064C137.046 128.766 136.465 128.576 135.863 128.505C134.402 128.475 132.99 129.025 131.934 130.035C130.879 131.045 130.267 132.432 130.232 133.892C129.966 135.325 130.274 136.805 131.088 138.014C131.903 139.223 133.16 140.064 134.588 140.356C134.739 140.37 134.89 140.377 135.04 140.377C136.414 140.26 137.698 139.645 138.651 138.649C139.604 137.653 140.162 136.343 140.219 134.965C140.428 133.283 139.967 131.586 138.937 130.24ZM134.987 136.79C134.315 136.718 133.672 135.63 133.816 134.276C133.96 132.922 134.821 131.999 135.493 132.071C135.761 132.119 135.999 132.269 136.157 132.491C136.587 133.099 136.769 133.848 136.664 134.585C136.502 135.935 135.633 136.844 134.972 136.79H134.987ZM130.86 141.742C130.225 141.227 129.656 140.636 129.165 139.982C126.084 135.098 122.651 132.62 118.963 132.62C115.275 132.62 111.846 135.098 108.768 139.982C108.275 140.635 107.705 141.226 107.069 141.742C105.439 142.806 104.224 144.397 103.627 146.249C103.029 148.102 103.086 150.103 103.787 151.919C104.175 153.333 104.929 154.619 105.973 155.648C107.017 156.677 108.315 157.413 109.734 157.78C110.283 157.904 110.844 157.967 111.407 157.966C113.071 158.013 114.687 157.416 115.921 156.3C116.741 155.509 117.835 155.067 118.974 155.067C120.113 155.067 121.207 155.509 122.026 156.3C123.26 157.416 124.877 158.013 126.54 157.966C127.105 157.966 127.667 157.904 128.217 157.78C129.636 157.412 130.933 156.677 131.978 155.648C133.022 154.619 133.776 153.333 134.164 151.919C134.863 150.099 134.914 148.095 134.31 146.242C133.706 144.389 132.483 142.8 130.846 141.742H130.86ZM130.756 150.72C130.553 151.552 130.136 152.318 129.548 152.941C128.959 153.565 128.218 154.024 127.399 154.275C126.911 154.406 126.4 154.427 125.903 154.336C125.406 154.245 124.936 154.045 124.526 153.75C123.035 152.301 121.039 151.49 118.96 151.49C116.881 151.49 114.884 152.301 113.393 153.75C112.984 154.046 112.513 154.246 112.016 154.337C111.519 154.428 111.008 154.406 110.52 154.275C109.7 154.024 108.959 153.565 108.37 152.942C107.78 152.318 107.363 151.553 107.159 150.72C106.018 147.49 107.455 146.2 109.446 144.414C109.448 144.412 109.449 144.411 109.45 144.41C110.343 143.685 111.13 142.839 111.788 141.896C113.426 139.303 115.997 136.212 118.949 136.212C121.901 136.212 124.479 139.303 126.113 141.896C126.772 142.838 127.559 143.684 128.451 144.41C128.453 144.412 128.456 144.415 128.459 144.417C130.448 146.205 131.882 147.495 130.742 150.723L130.756 150.72ZM54.9268 84.4029C54.1429 84.5483 53.4029 84.872 52.764 85.3489C52.1252 85.8259 51.6045 86.4434 51.2424 87.1537C50.4903 88.6021 50.2378 90.2585 50.5242 91.8652C50.6679 93.35 51.327 94.7376 52.3871 95.7871C53.4471 96.8367 54.8412 97.482 56.3274 97.6109C56.58 97.6119 56.8323 97.5915 57.0815 97.5499C58.6474 97.1323 59.9869 96.117 60.8122 94.7223C61.6375 93.3276 61.8826 91.6647 61.4949 90.0912C61.3672 88.4702 60.6064 86.9647 59.3773 85.9002C58.1482 84.8357 56.5494 84.2979 54.9268 84.4029ZM56.4926 93.9875C55.5337 94.1599 54.3379 93.0646 54.0614 91.287C53.9088 90.465 54.0273 89.6156 54.3989 88.8666C54.5044 88.6415 54.6582 88.4425 54.8494 88.2836C55.0406 88.1247 55.2644 88.0099 55.505 87.9473C55.5635 87.9421 55.6224 87.9421 55.681 87.9473C56.5716 87.9473 57.6668 88.9959 57.9398 90.6658C58.2414 92.429 57.4191 93.8403 56.5033 93.9875H56.4926ZM52.7722 104.359C53.3044 103.003 53.3738 101.509 52.9697 100.11C52.6907 98.6789 51.8607 97.4143 50.6584 96.5888C49.4561 95.7634 47.9778 95.443 46.5416 95.6969C45.1821 96.2165 44.0804 97.2483 43.4728 98.5708C42.8652 99.8934 42.8002 101.401 43.2917 102.771C43.662 104.182 44.4876 105.43 45.6403 106.323C46.4818 106.969 47.5098 107.326 48.5706 107.339C48.9589 107.34 49.3455 107.288 49.7198 107.185C50.4112 106.979 51.0461 106.617 51.5753 106.127C52.1046 105.637 52.5141 105.032 52.7722 104.359ZM49.4504 102.994C49.4142 103.169 49.3305 103.33 49.2086 103.46C49.0867 103.59 48.9313 103.684 48.7594 103.731C48.5876 103.779 48.406 103.778 48.2345 103.729C48.0631 103.68 47.9085 103.585 47.7878 103.454C47.2733 103.039 46.9078 102.468 46.7463 101.827C46.3872 100.516 46.8469 99.3383 47.4969 99.1587C47.5612 99.1412 47.6277 99.1327 47.6944 99.1336C48.3336 99.1336 49.1811 99.8805 49.4899 101.062C49.6863 101.693 49.675 102.37 49.4576 102.994H49.4504ZM68.3755 82.2088C67.5924 82.354 66.8533 82.6773 66.215 83.1536C65.5768 83.6299 65.0566 84.2466 64.6946 84.9559C63.9583 86.41 63.703 88.0603 63.9657 89.6688C64.2284 91.2774 64.9955 92.7608 66.1562 93.9049C67.1264 94.8423 68.4163 95.3763 69.7652 95.3988C70.019 95.3981 70.2723 95.3777 70.5229 95.3378C72.0886 94.9186 73.4276 93.9025 74.2527 92.5074C75.0777 91.1123 75.3232 89.4495 74.9364 87.8755C74.8023 86.2614 74.0411 84.7641 72.8159 83.7047C71.5907 82.6454 69.9992 82.1083 68.3826 82.2088H68.3755ZM69.9412 91.7898C69.6938 91.8088 69.4453 91.7727 69.2136 91.6838C68.982 91.595 68.7729 91.4558 68.6017 91.2763C68.0254 90.6743 67.645 89.9119 67.5103 89.0895C67.3757 88.2671 67.4933 87.4232 67.8476 86.6689C67.953 86.4435 68.1073 86.2444 68.2992 86.086C68.4911 85.9276 68.7159 85.8139 68.9572 85.7532C69.0145 85.7477 69.0723 85.7477 69.1296 85.7532C70.0202 85.7532 71.1191 86.8018 71.3884 88.468C71.6864 90.2348 70.8677 91.639 69.9484 91.7898H69.9412ZM79.9244 90.2456C79.2034 90.2981 78.5043 90.5162 77.8814 90.8831C77.2586 91.25 76.7288 91.7557 76.3333 92.3608C75.5401 93.5802 75.1554 95.0203 75.2348 96.4729C75.3142 97.9254 75.8536 99.315 76.775 100.441C77.2108 100.967 77.755 101.392 78.3704 101.689C78.9859 101.985 79.658 102.145 80.341 102.157H80.5744C81.2954 102.105 81.9945 101.887 82.6174 101.52C83.2402 101.153 83.77 100.647 84.1655 100.042C84.9586 98.8227 85.3434 97.3825 85.264 95.93C85.1845 94.4775 84.6451 93.0879 83.7238 91.9622C83.2626 91.408 82.6817 90.9656 82.0248 90.6683C81.368 90.371 80.6523 90.2265 79.9316 90.2456H79.9244ZM81.2136 97.9952C81.1241 98.1448 81.0032 98.2732 80.8594 98.3717C80.7157 98.4703 80.5523 98.5366 80.3805 98.5662C80.2059 98.5576 80.0354 98.5103 79.8814 98.4277C79.7273 98.3451 79.5936 98.2293 79.4899 98.0886C79.0891 97.5656 78.8553 96.934 78.8188 96.2761C78.7822 95.6182 78.9448 94.9646 79.2852 94.4005C79.3753 94.2514 79.4962 94.1233 79.6399 94.0248C79.7836 93.9264 79.9468 93.8598 80.1183 93.8295H80.1614C80.3278 93.8472 80.4887 93.8987 80.6345 93.9809C80.7802 94.063 80.9076 94.174 81.0089 94.3071C81.4195 94.8181 81.655 95.4476 81.6804 96.1027C81.7343 96.7665 81.5731 97.43 81.2208 97.9952H81.2136ZM77.109 104.118C76.399 103.711 75.7406 103.221 75.1483 102.656C71.3309 98.3292 67.5387 96.4582 63.9046 97.0256C60.2704 97.593 57.2754 100.617 55.0238 105.935C54.645 106.66 54.1782 107.335 53.634 107.946C52.196 109.258 51.2524 111.024 50.9615 112.949C50.6706 114.874 51.0499 116.84 52.036 118.518C52.6471 119.853 53.6001 121.002 54.7983 121.849C55.9964 122.697 57.3974 123.213 58.8591 123.345C59.0135 123.345 59.1679 123.345 59.3187 123.345C60.3486 123.371 61.3709 123.162 62.3079 122.733C63.245 122.305 64.0722 121.669 64.7269 120.874C65.0002 120.365 65.4049 119.939 65.8987 119.64C66.3926 119.34 66.9577 119.179 67.5351 119.172C68.0833 118.993 68.6694 118.966 69.2318 119.092C69.7943 119.218 70.3122 119.494 70.7312 119.89C71.7662 120.577 72.9869 120.931 74.2289 120.903C75.206 120.902 76.1738 120.714 77.0803 120.35C78.4211 119.758 79.582 118.822 80.4458 117.638C81.3096 116.454 81.8457 115.063 82.0001 113.606C82.3946 111.704 82.1249 109.725 81.236 107.998C80.3472 106.271 78.893 104.902 77.1162 104.118H77.109ZM78.4521 112.995C78.3857 113.85 78.0978 114.674 77.6168 115.384C77.1357 116.094 76.478 116.667 75.7085 117.046C75.2505 117.253 74.7523 117.355 74.2498 117.346C73.7473 117.337 73.2533 117.216 72.8033 116.992C72.0014 116.319 71.0513 115.847 70.0312 115.613C69.011 115.38 67.95 115.392 66.9354 115.649C65.8931 115.73 64.8848 116.057 63.9929 116.602C63.101 117.148 62.3508 117.897 61.8038 118.788C61.4484 119.142 61.0192 119.414 60.5469 119.583C60.0745 119.752 59.5705 119.816 59.071 119.768C58.2214 119.653 57.4163 119.318 56.7346 118.799C56.0529 118.279 55.5178 117.591 55.1818 116.802C53.5344 113.794 54.7459 112.289 56.4215 110.208C56.4225 110.207 56.4234 110.206 56.4243 110.205C57.1896 109.341 57.8302 108.374 58.3276 107.332C59.5234 104.509 61.5596 101.04 64.4791 100.566C67.3987 100.092 70.4296 102.721 72.4621 105.023C73.2654 105.848 74.179 106.557 75.177 107.131C75.1783 107.132 75.1796 107.133 75.1809 107.133C77.4376 108.583 79.0658 109.629 78.4592 112.995H78.4521ZM106.229 46.9407C106.763 46.9412 107.294 46.8514 107.798 46.675C109.266 45.9868 110.405 44.7505 110.971 43.2317C111.537 41.7129 111.485 40.0327 110.826 38.5519C110.3 37.0069 109.281 35.6779 107.924 34.7705C107.273 34.3063 106.519 34.0057 105.727 33.8941C104.935 33.7826 104.127 33.8633 103.373 34.1296C102.618 34.3958 101.939 34.8398 101.393 35.4238C100.846 36.0079 100.448 36.715 100.232 37.4854C99.7434 39.0427 99.7825 40.7179 100.343 42.2507C100.732 43.5391 101.504 44.6783 102.557 45.5163C103.61 46.3543 104.894 46.8512 106.236 46.9407H106.229ZM103.64 38.613C103.705 38.3762 103.822 38.1568 103.983 37.9706C104.143 37.7843 104.342 37.6358 104.566 37.5356C104.695 37.4907 104.829 37.4676 104.965 37.4674C105.327 37.4848 105.678 37.6016 105.978 37.805C106.663 38.284 107.176 38.9717 107.439 39.7657C108.039 41.4679 107.479 42.9977 106.603 43.3029C105.726 43.6082 104.333 42.775 103.73 41.0729C103.434 40.284 103.405 39.4199 103.647 38.613H103.64ZM100.358 57.9043C101.013 57.9068 101.661 57.762 102.254 57.4805C102.901 57.1565 103.464 56.6876 103.9 56.1102C104.336 55.5328 104.633 54.8625 104.768 54.1516C105.036 52.7223 104.842 51.2446 104.215 49.9326C103.587 48.6207 102.558 47.5426 101.277 46.8545C100.639 46.5147 99.9317 46.3262 99.2093 46.3038C98.4869 46.2814 97.769 46.4256 97.1114 46.7252C96.5669 46.9931 96.081 47.3662 95.6816 47.8229C95.2822 48.2796 94.9772 48.811 94.7843 49.3862C94.2589 50.9983 94.3878 52.7522 95.1434 54.2701C95.7572 55.5925 96.7914 56.6746 98.0845 57.3477C98.7904 57.7098 99.5716 57.9005 100.365 57.9043H100.358ZM98.1671 50.5785C98.245 50.3186 98.4199 50.0987 98.6555 49.9644C98.768 49.9124 98.8908 49.8866 99.0146 49.889C99.2429 49.8983 99.4661 49.9585 99.6682 50.0649C100.238 50.3952 100.695 50.8896 100.979 51.4834C101.263 52.0772 101.362 52.743 101.263 53.3939C101.238 53.567 101.176 53.7326 101.08 53.879C100.985 54.0254 100.858 54.1491 100.71 54.2414C100.545 54.2973 100.371 54.3172 100.198 54.2999C100.025 54.2826 99.8578 54.2283 99.7077 54.1408C99.1262 53.8162 98.6651 53.3124 98.3934 52.7044C98.055 52.0487 97.9767 51.2894 98.1743 50.5785H98.1671ZM116.094 41.5002C116.976 42.0816 118.007 42.397 119.064 42.4087C119.603 42.4087 120.138 42.3189 120.647 42.143C121.393 41.8615 122.065 41.4123 122.609 40.8301C123.154 40.2479 123.558 39.5483 123.79 38.7853C124.257 37.2249 124.217 35.5563 123.675 34.0202C123.132 32.4841 122.116 31.1599 120.773 30.2385C120.122 29.7734 119.368 29.472 118.576 29.3598C117.784 29.2476 116.977 29.3279 116.222 29.5938C115.467 29.8598 114.788 30.3037 114.241 30.8878C113.694 31.472 113.296 32.1793 113.081 32.9498C112.612 34.5104 112.651 36.1797 113.192 37.7166C113.734 39.2535 114.75 40.5785 116.094 41.5002ZM116.489 34.081C116.554 33.8442 116.671 33.6249 116.832 33.4386C116.992 33.2524 117.191 33.1039 117.415 33.0037C117.543 32.9587 117.678 32.9357 117.814 32.9354C118.176 32.9529 118.526 33.0697 118.827 33.273C119.5 33.7644 120.008 34.448 120.285 35.2339C120.562 36.0197 120.594 36.871 120.378 37.6757C120.33 37.9216 120.219 38.1507 120.055 38.3403C119.891 38.5299 119.681 38.6734 119.445 38.7565C119.208 38.8396 118.954 38.8595 118.708 38.8141C118.462 38.7688 118.231 38.6598 118.04 38.498C117.355 38.0211 116.843 37.3341 116.582 36.5409C116.285 35.7525 116.255 34.8883 116.496 34.081H116.489ZM125.492 42.4411C125.719 43.7069 126.361 44.8614 127.316 45.7232C128.271 46.585 129.485 47.1054 130.767 47.2028C131.098 47.2036 131.429 47.1651 131.751 47.0879C132.451 46.9082 133.101 46.5699 133.649 46.0991C134.198 45.6284 134.631 45.0378 134.915 44.3731C135.498 43.0375 135.624 41.5467 135.274 40.132C135.23 39.3896 135.024 38.6658 134.67 38.0115C134.317 37.3571 133.824 36.788 133.228 36.344C132.631 35.9001 131.944 35.592 131.216 35.4414C130.488 35.2907 129.735 35.3013 129.012 35.4722C128.288 35.6431 127.61 35.9703 127.026 36.4308C126.442 36.8913 125.966 37.4739 125.631 38.1379C125.296 38.8019 125.11 39.5311 125.087 40.2745C125.063 41.0178 125.199 41.7573 125.492 42.4411ZM129.837 38.9793C130.508 38.8141 131.464 39.6364 131.773 40.9579C131.939 41.5975 131.895 42.2738 131.647 42.8864C131.587 43.0512 131.491 43.2009 131.367 43.325C131.243 43.449 131.093 43.5445 130.929 43.6046C130.3 43.7949 129.305 42.951 128.989 41.6295C128.673 40.308 129.18 39.1229 129.837 38.9685V38.9793ZM135.166 58.1377C135.225 56.1944 134.616 54.2896 133.439 52.7418C132.263 51.194 130.59 50.097 128.702 49.634C127.931 49.3601 127.196 48.9923 126.515 48.5387C121.987 44.9476 117.922 43.7662 114.449 44.9907C110.977 46.2189 108.567 49.6986 107.285 55.3259C107.031 56.0993 106.681 56.8377 106.243 57.5236C105.336 58.8626 104.799 60.4181 104.687 62.0319C104.575 63.6458 104.893 65.2604 105.608 66.7117C106.322 68.163 107.408 69.3991 108.756 70.2944C110.103 71.1897 111.664 71.7123 113.278 71.809C114.52 71.8079 115.74 71.4851 116.819 70.8721C117.898 70.2591 118.8 69.3768 119.437 68.3113C119.617 67.7647 119.939 67.2763 120.372 66.8973C120.805 66.5182 121.332 66.2624 121.897 66.1566C122.406 65.8834 122.979 65.7525 123.556 65.7778C124.133 65.8031 124.693 65.9836 125.176 66.3003C125.92 66.6383 126.729 66.8075 127.546 66.7958C128.945 66.783 130.312 66.3814 131.496 65.6359C132.714 64.8177 133.695 63.6926 134.339 62.3742C134.984 61.0558 135.269 59.5908 135.166 58.1269V58.1377ZM129.586 62.5978C129.17 62.8816 128.697 63.0697 128.2 63.1485C127.704 63.2274 127.195 63.1951 126.713 63.0539C125.804 62.5354 124.785 62.2391 123.74 62.1892C122.694 62.1392 121.652 62.3371 120.698 62.7666C119.686 63.0299 118.751 63.5291 117.97 64.2232C117.188 64.9172 116.582 65.7866 116.202 66.7599C115.913 67.1683 115.538 67.5086 115.104 67.7567C114.67 68.0049 114.186 68.1549 113.688 68.1963C112.83 68.2389 111.976 68.0549 111.212 67.6628C110.448 67.2707 109.801 66.6843 109.335 65.9627C107.183 63.2978 108.112 61.6037 109.395 59.2631C109.397 59.2603 109.398 59.2574 109.4 59.2545C109.998 58.2716 110.458 57.2105 110.765 56.1016C111.447 53.1102 112.844 49.3395 115.627 48.3556C118.399 47.3644 121.861 49.4329 124.271 51.3362C125.207 52.0046 126.23 52.5411 127.312 52.9306C127.315 52.9317 127.318 52.9328 127.32 52.9338C129.79 53.9556 131.575 54.6938 131.575 58.1162C131.661 58.9716 131.523 59.8349 131.174 60.6207C130.826 61.4066 130.278 62.088 129.586 62.5978ZM42.2539 33.9158C43.0604 33.9201 43.8548 33.72 44.563 33.3341C45.254 32.936 45.8443 32.3844 46.2883 31.7219C46.7322 31.0593 47.018 30.3037 47.1234 29.5131C47.3476 27.9023 47.0372 26.2623 46.24 24.8447C45.5766 23.3663 44.36 22.2068 42.8514 21.6153C41.3427 21.0238 39.6623 21.0474 38.1708 21.681C36.8332 22.5963 35.9082 23.9999 35.5946 25.5901C35.281 27.1803 35.6038 28.83 36.4938 30.1847C37.0387 31.26 37.8588 32.1718 38.8706 32.8272C39.8824 33.4826 41.0497 33.8582 42.2539 33.9158ZM39.8981 24.816C40.0846 24.7201 40.2919 24.672 40.5014 24.6759C41.0556 24.7435 41.5832 24.952 42.034 25.2814C42.4847 25.6108 42.8435 26.0502 43.0762 26.5577C43.493 27.2825 43.6631 28.1231 43.561 28.9529C43.5362 29.2001 43.457 29.4387 43.3291 29.6516C43.2012 29.8646 43.0278 30.0466 42.8213 30.1847C42.0133 30.6192 40.4943 30.0267 39.6288 28.4466C38.7634 26.8665 39.083 25.2649 39.8981 24.816ZM38.1493 34.5658C37.4656 34.3325 36.7373 34.2601 36.021 34.3541C35.3047 34.4482 34.6198 34.7062 34.0195 35.1081C32.9052 36.0492 32.2054 37.3906 32.071 38.843C31.9367 40.2954 32.3785 41.7424 33.3013 42.872C34.1221 44.0759 35.3157 44.9768 36.6985 45.436C37.204 45.5953 37.7306 45.6777 38.2606 45.6802C39.1782 45.689 40.0762 45.4144 40.8318 44.8938C41.9454 43.9521 42.6446 42.6108 42.7789 41.1587C42.9132 39.7066 42.4719 38.2598 41.55 37.1298C40.7313 35.9225 39.5353 35.0207 38.1493 34.5658ZM38.7813 41.9455C38.6283 42.0302 38.4582 42.0796 38.2837 42.0902C38.1091 42.1007 37.9343 42.0722 37.7722 42.0065C37.1489 41.7865 36.6143 41.3692 36.2496 40.8179C35.4739 39.7046 35.5314 38.4406 36.07 38.0527C36.2224 37.9533 36.4017 37.9032 36.5836 37.9091C36.7519 37.9119 36.919 37.9397 37.0791 37.9917C37.7001 38.2142 38.2328 38.6311 38.5982 39.1804C39.3738 40.2864 39.3343 41.5576 38.7669 41.9455H38.7813ZM52.6393 27.1538C53.1371 27.3012 53.6535 27.3762 54.1727 27.3764C54.9892 27.3809 55.7936 27.1783 56.5105 26.7875C57.2012 26.3908 57.7914 25.8405 58.2354 25.1792C58.6794 24.5178 58.9653 23.7633 59.071 22.9738C59.2827 21.3577 58.9752 19.7162 58.1928 18.2864C57.4105 16.8565 56.1938 15.7125 54.7186 15.0195C54.0002 14.6674 53.2078 14.4931 52.408 14.5113C51.6083 14.5295 50.8246 14.7396 50.123 15.124C49.4214 15.5085 48.8225 16.0558 48.3767 16.7201C47.931 17.3844 47.6514 18.1461 47.5615 18.941C47.3349 20.5519 47.6454 22.1926 48.4449 23.6094C49.3202 25.2983 50.828 26.5725 52.6393 27.1538ZM51.8457 18.273C52.0336 18.1734 52.2435 18.1227 52.4562 18.1258C52.7413 18.1316 53.0222 18.1952 53.2821 18.3125C54.0269 18.6873 54.6402 19.2793 55.041 20.0104C55.4418 20.7414 55.6111 21.577 55.5266 22.4064C55.5018 22.654 55.4222 22.893 55.2937 23.106C55.1651 23.3191 54.9907 23.5008 54.7832 23.6381C54.6074 23.7242 54.4163 23.7746 54.2208 23.7863C54.0254 23.798 53.8296 23.7709 53.6448 23.7064C52.7569 23.3919 52.0232 22.7494 51.5943 21.9108C51.1778 21.1859 51.0077 20.3454 51.1095 19.5156C51.1322 19.2667 51.21 19.0261 51.3373 18.8112C51.4647 18.5962 51.6383 18.4124 51.8457 18.273ZM66.6015 30.199C67.1706 30.2007 67.7345 30.0897 68.2605 29.8723C69.5488 29.1889 70.5169 28.0267 70.9562 26.6361C71.3956 25.2456 71.2709 23.7382 70.6091 22.4387C70.1573 21.0504 69.1776 19.8955 67.8814 19.2236C66.5853 18.5517 65.0768 18.4166 63.6819 18.8476C62.3937 19.531 61.4256 20.6932 60.9862 22.0837C60.5469 23.4742 60.6716 24.9817 61.3333 26.2812C61.7347 27.3762 62.447 28.3302 63.3828 29.0261C64.3186 29.7221 65.4373 30.1297 66.6015 30.199ZM65.0609 22.1765C65.6821 21.9144 66.7738 22.5608 67.2945 23.8141C67.8153 25.0674 67.5064 26.2955 66.8816 26.5541C66.2567 26.8126 65.1686 26.1698 64.6479 24.9165C64.1272 23.6633 64.4396 22.4351 65.0609 22.1765ZM63.3084 32.1526C58.2594 29.3444 54.0578 28.8201 50.8258 30.5941C47.5938 32.3681 45.7732 36.1854 45.4176 41.9491C45.3025 42.7592 45.0865 43.5518 44.7748 44.3084C43.8549 46.0238 43.5526 48.0034 43.9188 49.9151C44.2849 51.8269 45.2972 53.5547 46.7858 54.8088C48.4012 56.3959 50.5586 57.3109 52.8225 57.3692C53.4973 57.3696 54.1691 57.2778 54.8191 57.0963C55.8905 56.8163 56.8786 56.282 57.6994 55.5386C58.5202 54.7953 59.1496 53.865 59.5342 52.8265C59.62 52.2553 59.8585 51.7178 60.2245 51.2709C60.5904 50.824 61.0703 50.4843 61.6134 50.2876C62.0713 49.936 62.6157 49.7146 63.1891 49.647C63.7624 49.5794 64.3434 49.6679 64.8706 49.9033C65.9538 50.1383 67.0778 50.1082 68.1469 49.8156C69.216 49.523 70.1987 48.9765 71.0113 48.2227C72.0788 47.2189 72.8627 45.9514 73.2839 44.5479C73.705 43.1444 73.7486 41.6546 73.4102 40.2289C73.1534 38.2987 72.2413 36.5152 70.8266 35.177C69.412 33.8389 67.5806 33.0272 65.6391 32.878C64.8355 32.7321 64.0528 32.4885 63.3084 32.1526ZM69.8658 40.8071C70.0865 41.6352 70.0883 42.5065 69.8712 43.3355C69.654 44.1646 69.2252 44.923 68.6268 45.5366C68.2642 45.8848 67.8284 46.1476 67.3513 46.306C66.8742 46.4645 66.3678 46.5144 65.8689 46.4523C64.8888 46.0868 63.8362 45.9584 62.797 46.0776C61.7578 46.1968 60.7616 46.5603 59.8897 47.1382C58.9325 47.5606 58.0891 48.204 57.4286 49.0155C56.7682 49.827 56.3095 50.7835 56.0903 51.8066C55.8718 52.259 55.5565 52.6579 55.1668 52.975C54.7771 53.2921 54.3225 53.5197 53.8351 53.6417C52.993 53.8149 52.1203 53.767 51.3022 53.5027C50.4841 53.2384 49.7483 52.7666 49.1667 52.1334C46.6135 49.8495 47.2563 48.0252 48.1469 45.5043C48.581 44.438 48.8638 43.3163 48.9872 42.1717C49.1775 39.1085 49.946 35.1619 52.5388 33.7434C54.0583 33.2893 55.6622 33.1927 57.2252 33.4612C58.7882 33.7297 60.268 34.356 61.5488 35.2912C62.5813 35.7978 63.6784 36.1603 64.8095 36.3685C64.8174 36.3704 64.8253 36.3722 64.8331 36.3741C67.4423 36.9852 69.3144 37.4237 69.8658 40.8071Z" fill="#33000F"/>
<path d="M69.8658 40.8071C70.0865 41.6352 70.0883 42.5065 69.8712 43.3355C69.654 44.1646 69.2252 44.923 68.6268 45.5366C68.2642 45.8848 67.8284 46.1476 67.3513 46.306C66.8742 46.4645 66.3678 46.5144 65.8689 46.4523C64.8888 46.0868 63.8362 45.9584 62.797 46.0776C61.7578 46.1968 60.7616 46.5603 59.8897 47.1382C58.9325 47.5606 58.0891 48.204 57.4286 49.0155C56.7682 49.827 56.3095 50.7835 56.0903 51.8066C55.8718 52.259 55.5565 52.6579 55.1668 52.975C54.7771 53.2921 54.3225 53.5197 53.8351 53.6417C52.993 53.8149 52.1203 53.767 51.3022 53.5027C50.4841 53.2384 49.7483 52.7666 49.1667 52.1334C46.6135 49.8495 47.2563 48.0252 48.1469 45.5043C48.581 44.438 48.8638 43.3163 48.9872 42.1717C49.1775 39.1085 49.946 35.1619 52.5388 33.7434C54.0583 33.2893 55.6622 33.1927 57.2252 33.4612C58.7882 33.7297 60.268 34.356 61.5488 35.2912C62.5813 35.7978 63.6784 36.1603 64.8095 36.3685L64.8331 36.3741C67.4423 36.9852 69.3144 37.4237 69.8658 40.8071Z" fill="#33000F"/>
<path d="M129.586 62.5978C129.17 62.8816 128.697 63.0697 128.2 63.1485C127.704 63.2274 127.195 63.1951 126.713 63.0539C125.804 62.5354 124.785 62.2391 123.74 62.1892C122.694 62.1392 121.652 62.3371 120.698 62.7666C119.686 63.0299 118.751 63.5291 117.97 64.2232C117.188 64.9172 116.582 65.7866 116.202 66.7599C115.913 67.1683 115.538 67.5086 115.104 67.7567C114.67 68.0049 114.186 68.1549 113.688 68.1963C112.83 68.2389 111.976 68.0549 111.212 67.6628C110.448 67.2707 109.801 66.6843 109.335 65.9627C107.183 63.2978 108.112 61.6037 109.395 59.2631L109.4 59.2545C109.998 58.2716 110.458 57.2105 110.765 56.1016C111.447 53.1102 112.844 49.3395 115.627 48.3556C118.399 47.3644 121.861 49.4329 124.271 51.3362C125.207 52.0046 126.23 52.5411 127.312 52.9306L127.32 52.9338C129.79 53.9556 131.575 54.6938 131.575 58.1162C131.661 58.9716 131.523 59.8349 131.174 60.6207C130.826 61.4066 130.278 62.088 129.586 62.5978Z" fill="#33000F"/>
<path d="M103.64 38.613C103.705 38.3762 103.822 38.1568 103.983 37.9706C104.143 37.7843 104.342 37.6358 104.566 37.5356C104.695 37.4907 104.829 37.4676 104.965 37.4674C105.327 37.4848 105.678 37.6016 105.978 37.805C106.663 38.284 107.176 38.9717 107.439 39.7657C108.039 41.4679 107.479 42.9977 106.603 43.3029C105.726 43.6082 104.333 42.775 103.73 41.0729C103.434 40.284 103.405 39.4199 103.647 38.613H103.64Z" fill="#33000F"/>
<path d="M98.1671 50.5785C98.245 50.3186 98.4199 50.0987 98.6555 49.9644C98.768 49.9124 98.8908 49.8866 99.0146 49.889C99.2429 49.8983 99.4661 49.9585 99.6682 50.0649C100.238 50.3952 100.695 50.8896 100.979 51.4834C101.263 52.0772 101.362 52.743 101.263 53.3939C101.238 53.567 101.176 53.7326 101.08 53.879C100.985 54.0254 100.858 54.1491 100.71 54.2414C100.545 54.2973 100.371 54.3172 100.198 54.2999C100.025 54.2826 99.8578 54.2283 99.7077 54.1408C99.1262 53.8162 98.6651 53.3124 98.3934 52.7044C98.055 52.0487 97.9767 51.2894 98.1743 50.5785H98.1671Z" fill="#33000F"/>
<path d="M116.489 34.081C116.554 33.8442 116.671 33.6249 116.832 33.4386C116.992 33.2524 117.191 33.1039 117.415 33.0037C117.543 32.9587 117.678 32.9357 117.814 32.9354C118.176 32.9529 118.526 33.0697 118.827 33.273C119.5 33.7644 120.008 34.448 120.285 35.2339C120.562 36.0197 120.594 36.871 120.378 37.6757C120.33 37.9216 120.219 38.1507 120.055 38.3403C119.891 38.5299 119.681 38.6734 119.445 38.7565C119.208 38.8396 118.954 38.8595 118.708 38.8141C118.462 38.7688 118.231 38.6598 118.04 38.498C117.355 38.0211 116.843 37.3341 116.582 36.5409C116.285 35.7525 116.255 34.8883 116.496 34.081H116.489Z" fill="#33000F"/>
<path d="M129.837 38.9793C130.508 38.8141 131.464 39.6364 131.773 40.9579C131.939 41.5975 131.895 42.2738 131.647 42.8864C131.587 43.0512 131.491 43.2009 131.367 43.325C131.243 43.449 131.093 43.5445 130.929 43.6046C130.3 43.7949 129.305 42.951 128.989 41.6295C128.673 40.308 129.18 39.1229 129.837 38.9685V38.9793Z" fill="#33000F"/>
<path d="M51.8457 18.273C52.0336 18.1734 52.2435 18.1227 52.4562 18.1258C52.7413 18.1316 53.0222 18.1952 53.2821 18.3125C54.0269 18.6873 54.6402 19.2793 55.041 20.0104C55.4418 20.7414 55.6111 21.577 55.5266 22.4064C55.5018 22.654 55.4222 22.893 55.2937 23.106C55.1651 23.3191 54.9907 23.5008 54.7832 23.6381C54.6074 23.7242 54.4163 23.7746 54.2208 23.7863C54.0254 23.798 53.8296 23.7709 53.6448 23.7064C52.7569 23.3919 52.0232 22.7494 51.5943 21.9108C51.1778 21.1859 51.0077 20.3454 51.1095 19.5156C51.1322 19.2667 51.21 19.0261 51.3373 18.8112C51.4647 18.5962 51.6383 18.4124 51.8457 18.273Z" fill="#33000F"/>
<path d="M65.0609 22.1765C65.6821 21.9144 66.7738 22.5608 67.2945 23.8141C67.8153 25.0674 67.5064 26.2955 66.8816 26.5541C66.2567 26.8126 65.1686 26.1698 64.6479 24.9165C64.1272 23.6633 64.4396 22.4351 65.0609 22.1765Z" fill="#33000F"/>
<path d="M39.8981 24.816C40.0846 24.7201 40.2919 24.672 40.5014 24.6759C41.0556 24.7435 41.5832 24.952 42.034 25.2814C42.4847 25.6108 42.8435 26.0502 43.0762 26.5577C43.493 27.2825 43.6631 28.1231 43.561 28.9529C43.5362 29.2001 43.457 29.4387 43.3291 29.6516C43.2012 29.8646 43.0278 30.0466 42.8213 30.1847C42.0133 30.6192 40.4943 30.0267 39.6288 28.4466C38.7634 26.8665 39.083 25.2649 39.8981 24.816Z" fill="#33000F"/>
<path d="M38.7813 41.9455C38.6283 42.0302 38.4582 42.0796 38.2837 42.0902C38.1091 42.1007 37.9343 42.0722 37.7722 42.0065C37.1489 41.7865 36.6143 41.3692 36.2496 40.8179C35.4739 39.7046 35.5314 38.4406 36.07 38.0527C36.2224 37.9533 36.4017 37.9032 36.5836 37.9091C36.7519 37.9119 36.919 37.9397 37.0791 37.9917C37.7001 38.2142 38.2328 38.6311 38.5982 39.1804C39.3738 40.2864 39.3343 41.5576 38.7669 41.9455H38.7813Z" fill="#33000F"/>
<path d="M69.9412 91.7898C69.6938 91.8088 69.4453 91.7727 69.2136 91.6838C68.982 91.595 68.7729 91.4558 68.6017 91.2763C68.0254 90.6743 67.645 89.9119 67.5103 89.0895C67.3757 88.2671 67.4933 87.4232 67.8476 86.6689C67.953 86.4435 68.1073 86.2444 68.2992 86.086C68.4911 85.9276 68.7159 85.8139 68.9572 85.7532C69.0145 85.7477 69.0723 85.7477 69.1296 85.7532C70.0202 85.7532 71.1191 86.8018 71.3884 88.468C71.6864 90.2348 70.8677 91.639 69.9484 91.7898H69.9412Z" fill="#33000F"/>
<path d="M81.2136 97.9952C81.1241 98.1448 81.0032 98.2732 80.8594 98.3717C80.7157 98.4703 80.5523 98.5366 80.3805 98.5662C80.2059 98.5576 80.0354 98.5103 79.8814 98.4277C79.7273 98.3451 79.5936 98.2293 79.4899 98.0886C79.0891 97.5656 78.8553 96.934 78.8188 96.2761C78.7822 95.6182 78.9448 94.9646 79.2852 94.4005C79.3753 94.2514 79.4962 94.1233 79.6399 94.0248C79.7836 93.9264 79.9468 93.8598 80.1183 93.8295H80.1614C80.3278 93.8472 80.4887 93.8987 80.6345 93.9809C80.7802 94.063 80.9076 94.174 81.0089 94.3071C81.4195 94.8181 81.655 95.4476 81.6804 96.1027C81.7343 96.7665 81.5731 97.43 81.2208 97.9952H81.2136Z" fill="#33000F"/>
<path d="M78.4521 112.995C78.3857 113.85 78.0978 114.674 77.6168 115.384C77.1357 116.094 76.478 116.667 75.7085 117.046C75.2505 117.253 74.7523 117.355 74.2498 117.346C73.7473 117.337 73.2533 117.216 72.8033 116.992C72.0014 116.319 71.0513 115.847 70.0312 115.613C69.011 115.38 67.95 115.392 66.9354 115.649C65.8931 115.73 64.8848 116.057 63.9929 116.602C63.101 117.148 62.3508 117.897 61.8038 118.788C61.4484 119.142 61.0192 119.414 60.5469 119.583C60.0745 119.752 59.5705 119.816 59.071 119.768C58.2214 119.653 57.4163 119.318 56.7346 118.799C56.0529 118.279 55.5178 117.591 55.1818 116.802C53.5344 113.794 54.7459 112.289 56.4215 110.208L56.4243 110.205C57.1896 109.341 57.8302 108.374 58.3276 107.332C59.5234 104.509 61.5596 101.04 64.4791 100.566C67.3987 100.092 70.4296 102.721 72.4621 105.023C73.2654 105.848 74.179 106.557 75.177 107.131L75.1809 107.133C77.4376 108.583 79.0658 109.629 78.4592 112.995H78.4521Z" fill="#33000F"/>
<path d="M56.4926 93.9875C55.5337 94.1599 54.3379 93.0646 54.0614 91.287C53.9088 90.465 54.0273 89.6156 54.3989 88.8666C54.5044 88.6415 54.6582 88.4425 54.8494 88.2836C55.0406 88.1247 55.2644 88.0099 55.505 87.9473C55.5635 87.9421 55.6224 87.9421 55.681 87.9473C56.5716 87.9473 57.6668 88.9959 57.9398 90.6658C58.2414 92.429 57.4191 93.8403 56.5033 93.9875H56.4926Z" fill="#33000F"/>
<path d="M49.4504 102.994C49.4142 103.169 49.3305 103.33 49.2086 103.46C49.0867 103.59 48.9313 103.684 48.7594 103.731C48.5876 103.779 48.406 103.778 48.2345 103.729C48.0631 103.68 47.9085 103.585 47.7878 103.454C47.2733 103.039 46.9078 102.468 46.7463 101.827C46.3872 100.516 46.8469 99.3383 47.4969 99.1587C47.5612 99.1412 47.6277 99.1327 47.6944 99.1336C48.3336 99.1336 49.1811 99.8805 49.4899 101.062C49.6863 101.693 49.675 102.37 49.4576 102.994H49.4504Z" fill="#33000F"/>
<path d="M101.252 134.588C101.164 133.933 101.29 133.267 101.611 132.689C101.692 132.534 101.805 132.399 101.943 132.293C102.082 132.187 102.242 132.112 102.412 132.075H102.491C102.815 132.107 103.114 132.263 103.328 132.509C103.767 133.002 104.034 133.625 104.089 134.283C104.176 134.938 104.05 135.605 103.73 136.183C103.649 136.337 103.535 136.471 103.397 136.577C103.259 136.682 103.099 136.756 102.929 136.793C102.29 136.851 101.399 135.935 101.252 134.588Z" fill="#33000F"/>
<path d="M114.104 125.363C114.104 127.158 113.067 128.422 112.136 128.422C111.206 128.422 110.172 127.166 110.172 125.363C110.172 123.56 111.21 122.303 112.136 122.303C113.063 122.303 114.104 123.56 114.104 125.363Z" fill="#33000F"/>
<path d="M130.756 150.72C130.553 151.552 130.136 152.318 129.548 152.941C128.959 153.565 128.218 154.024 127.399 154.275C126.911 154.406 126.4 154.427 125.903 154.336C125.406 154.245 124.936 154.045 124.526 153.75C123.035 152.301 121.039 151.49 118.96 151.49C116.881 151.49 114.884 152.301 113.393 153.75C112.984 154.046 112.513 154.246 112.016 154.337C111.519 154.428 111.008 154.406 110.52 154.275C109.7 154.024 108.959 153.565 108.37 152.942C107.78 152.318 107.363 151.553 107.159 150.72C106.018 147.49 107.455 146.2 109.446 144.414L109.45 144.41C110.343 143.685 111.13 142.839 111.788 141.896C113.426 139.303 115.997 136.212 118.949 136.212C121.901 136.212 124.479 139.303 126.113 141.896C126.772 142.838 127.559 143.684 128.451 144.41L128.459 144.417C130.448 146.205 131.882 147.495 130.742 150.723L130.756 150.72Z" fill="#33000F"/>
<path d="M127.729 125.363C127.729 127.158 126.695 128.422 125.765 128.422C124.835 128.422 123.8 127.166 123.8 125.363C123.8 123.56 124.835 122.303 125.765 122.303C126.695 122.303 127.729 123.56 127.729 125.363Z" fill="#33000F"/>
<path d="M134.987 136.79C134.315 136.718 133.672 135.63 133.816 134.276C133.96 132.922 134.821 131.999 135.493 132.071C135.761 132.119 135.999 132.269 136.157 132.491C136.587 133.099 136.769 133.848 136.664 134.585C136.502 135.935 135.633 136.844 134.972 136.79H134.987Z" fill="#33000F"/>
</svg>
